<svg width="36" height="56" viewBox="0 0 36 56" fill="none" xmlns="http://www.w3.org/2000/svg">
<path fill-rule="evenodd" clip-rule="evenodd" d="M10.7414 48.2512L11.5156 52.8985C11.7932 54.5619 13.2464 55.7937 14.9335 55.7937H21.1866C22.8737 55.7937 24.327 54.5619 24.6046 52.8985L25.3787 48.25C26.5443 48.0399 27.4398 47.0106 27.4398 45.7887V44.5381C27.4398 43.8753 27.1759 43.2387 26.7069 42.7697C26.2379 42.3007 25.6013 42.0369 24.9385 42.0369H24.3132V38.9328C24.966 38.4676 25.4438 37.7635 25.6089 36.9343L26.0516 34.7245C26.1679 34.1429 26.7194 33.4801 27.2247 33.1699C32.366 30.0134 35.5601 24.3918 35.5688 18.2775V18.275C35.5688 8.60511 27.7299 0.766235 18.0601 0.766235C8.39017 0.766235 0.55127 8.60511 0.55127 18.275V18.2762C0.55257 18.844 0.58007 19.4056 0.63507 19.9633C0.70267 20.6499 1.31417 21.1527 2.00207 21.0851C2.68867 21.0176 3.19137 20.4061 3.12387 19.7182C3.07757 19.2417 3.05377 18.7602 3.05257 18.2737C3.05257 11.3853 7.69357 5.5824 14.0193 3.81777C12.3435 6.82927 11.1816 12.1719 11.1816 18.275V18.2762C11.1854 24.2092 12.2985 29.6557 14.0243 32.7184C14.2307 33.0824 14.4233 33.8828 14.4708 34.5656L14.6234 36.7755C14.6296 36.8643 14.6384 36.9506 14.6471 37.0344H13.6829C13.334 37.0344 13.0313 36.7867 12.9638 36.4441L12.5223 34.2342C12.2859 33.0549 11.2292 31.6679 10.2037 31.0376C8.13387 29.767 6.43177 28.0286 5.20867 26.0001C4.85217 25.4085 4.08177 25.2185 3.49147 25.5749C2.89997 25.9313 2.70987 26.7004 3.06627 27.292C4.49327 29.6582 6.47927 31.6867 8.89547 33.1699C9.40067 33.4801 9.95227 34.1429 10.0686 34.7245L10.5113 36.9343C10.6764 37.7635 11.1541 38.4676 11.807 38.9328V42.0369H11.1816C9.80967 42.0369 8.68037 43.1662 8.68037 44.5381V45.7887C8.68037 46.4516 8.94427 47.0881 9.41327 47.5571C9.77717 47.921 10.2412 48.1612 10.7414 48.2512ZM22.8375 48.29H22.396C21.7057 48.29 21.1454 47.7297 21.1454 47.0394C21.1454 46.349 21.7057 45.7887 22.396 45.7887H24.9385V44.6382C24.8585 44.6181 24.7447 44.5381 24.9385 44.5381H11.1816V45.6887C11.2617 45.7087 11.3755 45.7887 11.1816 45.7887H18.3777C19.0668 45.7887 19.6284 46.349 19.6284 47.0394C19.6284 47.7297 19.0668 48.29 18.3777 48.29H13.2827L13.983 52.4871C14.0593 52.9498 14.4645 53.2925 14.9335 53.2925H21.1866C21.6556 53.2925 22.0608 52.9498 22.1371 52.4871L22.8375 48.29ZM16.8095 42.0369V39.5356H14.3082V42.0369H16.8095ZM21.812 42.0369V39.5356H19.3107V42.0369H21.812ZM18.0601 3.26749C18.3865 3.26749 18.6779 3.46509 18.9718 3.74773C19.4395 4.19671 19.8635 4.86203 20.2524 5.68745C21.5931 8.52511 22.4373 13.1086 22.4373 18.275C22.4348 23.6977 21.4943 28.6902 19.916 31.4891C19.5921 32.0656 19.2282 33.3137 19.1544 34.393L19.0005 36.6029C18.9918 36.7405 18.963 36.8968 18.9318 37.0344H17.1884C17.1571 36.8968 17.1284 36.7405 17.1196 36.6029L16.9658 34.393C16.892 33.3137 16.5281 32.0656 16.2042 31.4891C14.6259 28.6902 13.6854 23.6977 13.6829 18.275C13.6829 13.1086 14.5271 8.52511 15.8677 5.68745C16.2567 4.86203 16.6806 4.19671 17.1484 3.74773C17.4423 3.46509 17.7337 3.26749 18.0601 3.26749ZM22.1009 3.81777C23.7767 6.82927 24.9385 12.1719 24.9385 18.275V18.2762C24.936 24.2092 23.8217 29.6557 22.0958 32.7184C21.8895 33.0824 21.6969 33.8828 21.6494 34.5656L21.4968 36.7755C21.4905 36.8643 21.4818 36.9506 21.473 37.0344H22.4373C22.7862 37.0344 23.0888 36.7867 23.1564 36.4441L23.5979 34.2342C23.8342 33.0549 24.891 31.6679 25.9153 31.0376C30.3225 28.3325 33.0588 23.5151 33.0676 18.2737C33.0676 11.3865 28.4265 5.5824 22.1009 3.81777Z" fill="#EB662B"/>
</svg>
